HIERARCHY
ROOT Hips
{
	OFFSET 0.00000 0.00000 0.00000
	CHANNELS 6 Xposition Yposition Zposition Zrotation Yrotation Xrotation 
	JOINT LHipJoint
	{
		OFFSET 0 0 0
		CHANNELS 3 Zrotation Yrotation Xrotation
		JOINT LeftUpLeg
		{
			OFFSET 1.56857 -1.73443 1.15205
			CHANNELS 3 Zrotation Yrotation Xrotation
			JOINT LeftLeg
			{
				OFFSET 2.39362 -6.57643 0.00000
				CHANNELS 3 Zrotation Yrotation Xrotation
				JOINT LeftFoot
				{
					OFFSET 2.50952 -6.89485 0.00000
					CHANNELS 3 Zrotation Yrotation Xrotation
					JOINT LeftToeBase
					{
						OFFSET 0.17171 -0.47178 1.88682
						CHANNELS 3 Zrotation Yrotation Xrotation
						End Site
						{
							OFFSET 0.00000 -0.00000 0.98146
						}
					}
				}
			}
		}
	}
	JOINT RHipJoint
	{
		OFFSET 0 0 0
		CHANNELS 3 Zrotation Yrotation Xrotation
		JOINT RightUpLeg
		{
			OFFSET -1.28153 -1.73443 1.15205
			CHANNELS 3 Zrotation Yrotation Xrotation
			JOINT RightLeg
			{
				OFFSET -2.26861 -6.23296 0.00000
				CHANNELS 3 Zrotation Yrotation Xrotation
				JOINT RightFoot
				{
					OFFSET -2.54143 -6.98254 0.00000
					CHANNELS 3 Zrotation Yrotation Xrotation
					JOINT RightToeBase
					{
						OFFSET -0.23309 -0.64041 1.93119
						CHANNELS 3 Zrotation Yrotation Xrotation
						End Site
						{
							OFFSET -0.00000 -0.00000 1.02013
						}
					}
				}
			}
		}
	}
	JOINT LowerBack
	{
		OFFSET 0 0 0
		CHANNELS 3 Zrotation Yrotation Xrotation
		JOINT Spine
		{
			OFFSET -0.07096 2.10460 -0.27878
			CHANNELS 3 Zrotation Yrotation Xrotation
			JOINT Spine1
			{
				OFFSET -0.00826 2.13662 -0.08279
				CHANNELS 3 Zrotation Yrotation Xrotation
				JOINT Neck
				{
					OFFSET 0 0 0
					CHANNELS 3 Zrotation Yrotation Xrotation
					JOINT Neck1
					{
						OFFSET 0.03239 1.77799 0.24435
						CHANNELS 3 Zrotation Yrotation Xrotation
						JOINT Head
						{
							OFFSET 0.01026 1.74194 -0.49664
							CHANNELS 3 Zrotation Yrotation Xrotation
							End Site
							{
								OFFSET 0.00170 1.83057 -0.19653
							}
						}
					}
				}
				JOINT LeftShoulder
				{
					OFFSET 0 0 0
					CHANNELS 3 Zrotation Yrotation Xrotation
					JOINT LeftArm
					{
						OFFSET 3.19178 1.35907 -0.31412
						CHANNELS 3 Zrotation Yrotation Xrotation
						JOINT LeftForeArm
						{
							OFFSET 4.85247 -0.00000 -0.00000
							CHANNELS 3 Zrotation Yrotation Xrotation
							JOINT LeftHand
							{
								OFFSET 3.55584 -0.00000 0.00000
								CHANNELS 3 Zrotation Yrotation Xrotation
								JOINT LeftFingerBase
								{
									OFFSET 0 0 0
									CHANNELS 3 Zrotation Yrotation Xrotation
									JOINT LeftHandIndex1
									{
										OFFSET 0.69320 -0.00000 0.00000
										CHANNELS 3 Zrotation Yrotation Xrotation
										End Site
										{
											OFFSET 0.55888 -0.00000 0.00000
										}
									}
								}
								JOINT LThumb
								{
									OFFSET 0 0 0
									CHANNELS 3 Zrotation Yrotation Xrotation
									End Site
									{
										OFFSET 0.56741 -0.00000 0.56741
									}
								}
							}
						}
					}
				}
				JOINT RightShoulder
				{
					OFFSET 0 0 0
					CHANNELS 3 Zrotation Yrotation Xrotation
					JOINT RightArm
					{
						OFFSET -3.28999 1.24191 -0.26899
						CHANNELS 3 Zrotation Yrotation Xrotation
						JOINT RightForeArm
						{
							OFFSET -4.64462 -0.00000 0.00000
							CHANNELS 3 Zrotation Yrotation Xrotation
							JOINT RightHand
							{
								OFFSET -3.40703 -0.00000 0.00000
								CHANNELS 3 Zrotation Yrotation Xrotation
								JOINT RightFingerBase
								{
									OFFSET 0 0 0
									CHANNELS 3 Zrotation Yrotation Xrotation
									JOINT RightHandIndex1
									{
										OFFSET -0.61958 -0.00000 0.00000
										CHANNELS 3 Zrotation Yrotation Xrotation
										End Site
										{
											OFFSET -0.49952 -0.00000 0.00000
										}
									}
								}
								JOINT RThumb
								{
									OFFSET 0 0 0
									CHANNELS 3 Zrotation Yrotation Xrotation
									End Site
									{
										OFFSET -0.50715 -0.00000 0.50715
									}
								}
							}
						}
					}
				}
			}
		}
	}
}
MOTION
Frames: 5
Frame Time: .0083333
-21.0811 14.9093 0.7934 -46.7625 78.9195 -24.1555 0.0000 0.0000 0.0000 -6.7970 6.4271 -73.0538 16.8975 19.7676 80.8951 1.0020 1.3535 -19.4466 0.6106 -5.0012 -13.9120 0.0000 0.0000 0.0000 23.6256 -6.1813 12.5680 -0.2269 -3.0658 8.4621 -2.6274 4.3424 -29.6778 -1.4367 7.5782 -21.4401 2.9890 5.5292 21.9352 0.1678 8.1986 7.5993 -3.4670 4.2224 -3.4602 6.4674 1.6714 -28.2880 -4.7741 0.7931 12.6638 -2.5651 0.1782 8.5256 0.0000 -0.0000 0.0000 -55.0415 49.4332 76.5770 51.3846 -53.5389 -27.2839 -0.0000 0.0000 -36.8491 34.4478 -20.7130 -13.6369 -7.1250 0.0000 -0.0000 3.6871 5.3900 -3.3315 0.0000 -0.0000 0.0000 82.8489 33.5179 55.0298 -110.0199 58.4301 -77.2463 0.0000 -0.0000 -21.4636 -38.3014 -22.2242 16.6322 7.1250 -0.0000 -0.0000 -10.6626 -57.1646 3.2022
-20.7616 14.9246 0.7799 -43.6272 78.7963 -20.3781 0.0000 0.0000 0.0000 -7.5121 6.4144 -71.2699 16.6299 19.7255 80.1031 1.0892 1.1157 -20.1536 0.7944 -5.6893 -15.8857 0.0000 0.0000 0.0000 22.6289 -5.5071 12.9577 -0.2362 -3.1276 8.6341 -2.2102 3.7479 -27.2164 -1.6248 8.0364 -22.8247 2.5324 5.8420 21.3059 -0.6063 8.4318 7.3670 -4.0269 4.3347 -3.3180 6.1729 1.3263 -27.8282 -3.8844 0.2884 12.4168 -2.2767 0.0289 8.3343 -0.0000 -0.0000 0.0000 -54.0490 49.6580 75.7101 52.3149 -53.8875 -28.0337 -0.0000 0.0000 -35.4511 35.4299 -20.6607 -14.0914 -7.1250 0.0000 -0.0000 4.3047 5.2056 -3.9077 -0.0000 -0.0000 0.0000 81.8272 32.3090 54.9232 -112.6158 57.9763 -79.4528 0.0000 -0.0000 -21.7530 -37.9652 -22.4926 16.6213 7.1250 -0.0000 -0.0000 -10.2520 -57.3937 3.1339
-20.4169 14.9503 0.7515 -39.7619 78.6053 -16.2367 0.0000 0.0000 0.0000 -8.5205 6.5207 -68.7721 16.1797 19.6464 78.7666 1.2296 0.5291 -21.1626 1.0002 -6.3643 -17.8450 0.0000 0.0000 0.0000 21.3471 -4.9382 13.3334 -0.2846 -3.4311 9.4814 -1.8025 3.0848 -24.5986 -1.6342 8.0585 -22.8919 2.0134 6.0929 20.7843 -1.3238 8.6099 7.4267 -4.4655 4.4408 -2.9327 5.7822 1.0677 -27.5327 -3.1850 -0.0311 12.0739 -2.0131 -0.0629 8.1524 -0.0000 0.0000 0.0000 -54.0653 49.2587 74.1740 52.9222 -54.1082 -28.5250 -0.0000 0.0000 -35.0677 36.7269 -20.7065 -14.7785 -7.1250 0.0000 -0.0000 5.0966 4.8157 -4.6697 -0.0000 0.0000 0.0000 80.8411 30.7493 55.0442 -115.1812 57.4630 -81.6218 0.0000 -0.0000 -21.3262 -37.3764 -22.6896 16.4185 7.1250 -0.0000 -0.0000 -9.5376 -57.4750 2.9315
-20.0981 14.9807 0.7313 -36.1209 78.9740 -12.1070 0.0000 0.0000 0.0000 -9.7375 5.9296 -66.5920 15.7364 19.5585 77.4454 1.4346 -1.3107 -22.2632 1.3670 -7.3998 -20.9055 0.0000 0.0000 0.0000 20.2820 -4.2558 13.0600 -0.3807 -3.9623 10.9707 -1.4373 2.0319 -22.0991 -1.2486 7.0845 -19.9660 1.2199 6.1044 20.2620 -1.9273 8.4490 7.4805 -4.5644 4.3721 -2.6400 5.3016 0.8465 -27.6341 -2.5714 -0.2693 11.8654 -1.7576 -0.1311 8.0862 -0.0000 0.0000 0.0000 -55.0138 48.4104 72.0604 53.3697 -54.2673 -28.8879 -0.0000 0.0000 -35.5508 38.3119 -21.0126 -15.8177 -7.1250 0.0000 -0.0000 6.0089 4.0193 -5.6044 -0.0000 0.0000 0.0000 79.9264 29.1121 55.5620 -116.9429 57.0710 -83.1038 0.0000 -0.0000 -20.6321 -36.9316 -22.2180 15.8670 7.1250 -0.0000 -0.0000 -9.0373 -56.8175 2.6322
-19.7835 15.0154 0.7176 -32.2295 79.4280 -7.7018 0.0000 0.0000 0.0000 -11.0100 5.3055 -64.5533 15.2977 19.4614 76.1317 1.7008 -4.1229 -23.6807 1.1819 -6.8997 -19.4185 0.0000 0.0000 0.0000 19.4267 -3.3620 12.4723 -0.5298 -4.6642 12.9532 -1.0818 0.4781 -19.5125 -0.8151 5.7611 -16.0928 0.3181 6.0427 19.9886 -2.4599 8.1740 7.3419 -4.5556 4.2277 -2.7139 4.6609 0.5893 -27.4805 -1.9043 -0.4943 11.6674 -1.4565 -0.1952 7.9885 -0.0000 0.0000 0.0000 -56.0849 47.5450 69.9213 54.1704 -54.5450 -29.5390 -0.0000 0.0000 -35.9171 39.8276 -20.4701 -16.2598 -7.1250 0.0000 -0.0000 7.0383 4.2241 -6.5514 -0.0000 0.0000 0.0000 79.1234 26.8437 56.4070 -117.9600 56.8295 -83.9563 0.0000 -0.0000 -19.7946 -36.5116 -19.6657 13.9891 7.1250 -0.0000 -0.0000 -8.6811 -53.7435 1.8772
